<?xml version="1.0" encoding="iso-8859-1"?>
<!-- Generator: Adobe Illustrator 19.0.0, SVG Export Plug-In . SVG Version: 6.00 Build 0)  -->
<svg version="1.1" id="Capa_1" xmlns="http://www.w3.org/2000/svg" xmlns:xlink="http://www.w3.org/1999/xlink" x="0px" y="0px"
	 viewBox="0 0 512 512" style="enable-background:new 0 0 512 512;" xml:space="preserve">
<g>
	<g>
		<g>
			<path d="M155.985,126h200.029c11.048,0,20.003-8.954,20.003-20s-8.956-20-20.003-20H155.985c-11.048,0-20.003,8.954-20.003,20
				S144.938,126,155.985,126z"/>
			<path d="M435.798,16.988C434.31,7.218,425.908,0,416.023,0H95.977C86.092,0,77.69,7.218,76.202,16.988
				C75.859,19.233,42,244.355,42,492c0,11.046,8.955,20,20.003,20h387.994c11.048,0,20.003-8.954,20.003-20
				C470,244.355,436.141,19.233,435.798,16.988z M113.344,40h285.311c5.454,39.955,18.842,146.458,26.232,278.025l-32.866,48.341
				c-13.593,19.994-36.144,31.932-60.324,31.932H180.302c-24.18,0-46.731-11.938-60.325-31.933l-32.865-48.339
				C94.503,186.458,107.89,79.955,113.344,40z M82.079,472c0.217-29.656,0.906-58.895,1.943-87.369
				c1.476,1.346,29.455,53.666,96.281,53.666h151.395c66.797,0,94.88-52.389,96.281-53.667c1.036,28.475,1.726,57.714,1.943,87.37
				H82.079z"/>
			<path d="M155.985,196h200.029c11.048,0,20.003-8.954,20.003-20s-8.956-20-20.003-20H155.985c-11.048,0-20.003,8.954-20.003,20
				S144.938,196,155.985,196z"/>
		</g>
	</g>
</g>
<g>
</g>
<g>
</g>
<g>
</g>
<g>
</g>
<g>
</g>
<g>
</g>
<g>
</g>
<g>
</g>
<g>
</g>
<g>
</g>
<g>
</g>
<g>
</g>
<g>
</g>
<g>
</g>
<g>
</g>
</svg>
