<?xml version="1.0" encoding="iso-8859-1"?>
<!-- Generator: Adobe Illustrator 19.0.0, SVG Export Plug-In . SVG Version: 6.00 Build 0)  -->
<svg version="1.1" id="Capa_1" xmlns="http://www.w3.org/2000/svg" xmlns:xlink="http://www.w3.org/1999/xlink" x="0px" y="0px"
	 viewBox="0 0 512 512" style="enable-background:new 0 0 512 512;" xml:space="preserve">
<g>
	<g>
		<g>
			<path d="M68.284,98.997h260.425c11.046,0,20-8.954,20-20c0-11.046-8.954-20-20-20H68.285L93.14,34.143
				c7.811-7.811,7.811-20.475,0-28.284c-7.811-7.812-20.474-7.812-28.284-0.001L5.858,64.855C2.106,68.618,0,73.703,0,78.997
				c0,5.378,2.175,10.459,5.858,14.143l58.998,58.997c7.81,7.811,20.473,7.812,28.284,0.001c7.811-7.811,7.811-20.475,0-28.284
				L68.284,98.997z"/>
			<path d="M350.343,141.393c-7.811-7.812-20.474-7.812-28.284-0.001L182.432,281.018v-35.15c0-11.046-8.954-20-20-20
				s-20,8.954-20,20v83.435c0,0.001,0,0.001,0,0.002c0.001,10.929,8.903,19.998,20,19.998h83.435c11.046,0,20-8.954,20-20
				c0-11.046-8.954-20-20-20h-35.15l139.626-139.625C358.154,161.867,358.154,149.203,350.343,141.393z"/>
			<path d="M506.141,418.861c-7.811-7.811-20.474-7.811-28.284,0l-24.855,24.855V183.291c0-11.046-8.954-20-20-20
				c-11.046,0-20,8.954-20,20v260.425l-24.855-24.855c-7.81-7.811-20.473-7.81-28.284,0c-7.811,7.81-7.811,20.474,0,28.285
				l58.997,58.997c3.796,3.782,9.016,5.857,14.142,5.857c5.344,0,10.452-2.167,14.142-5.857l58.998-58.997
				C513.953,439.335,513.953,426.672,506.141,418.861z"/>
		</g>
	</g>
</g>
<g>
</g>
<g>
</g>
<g>
</g>
<g>
</g>
<g>
</g>
<g>
</g>
<g>
</g>
<g>
</g>
<g>
</g>
<g>
</g>
<g>
</g>
<g>
</g>
<g>
</g>
<g>
</g>
<g>
</g>
</svg>
