<?xml version="1.0" encoding="iso-8859-1"?>
<!-- Generator: Adobe Illustrator 19.0.0, SVG Export Plug-In . SVG Version: 6.00 Build 0)  -->
<svg version="1.1" id="Capa_1" xmlns="http://www.w3.org/2000/svg" xmlns:xlink="http://www.w3.org/1999/xlink" x="0px" y="0px"
	 viewBox="0 0 512 512" style="enable-background:new 0 0 512 512;" xml:space="preserve">
<g>
	<g>
		<g>
			<path d="M492,118c-11.046,0-20,8.954-20,20v296H96c-11.046,0-20,8.954-20,20c0,11.046,8.954,20,20,20h396
				c11.046,0,20-8.954,20-20V138C512,126.954,503.046,118,492,118z"/>
			<path d="M436,378V58c0-11.046-8.954-20-20-20H20C8.954,38,0,46.954,0,58v320c0,11.046,8.954,20,20,20h396
				C427.046,398,436,389.046,436,378z M396,358H40V148h356V358z M396,108H40V78h356V108z"/>
		</g>
	</g>
</g>
<g>
</g>
<g>
</g>
<g>
</g>
<g>
</g>
<g>
</g>
<g>
</g>
<g>
</g>
<g>
</g>
<g>
</g>
<g>
</g>
<g>
</g>
<g>
</g>
<g>
</g>
<g>
</g>
<g>
</g>
</svg>
