<?xml version="1.0" encoding="iso-8859-1"?>
<!-- Generator: Adobe Illustrator 19.0.0, SVG Export Plug-In . SVG Version: 6.00 Build 0)  -->
<svg version="1.1" id="Capa_1" xmlns="http://www.w3.org/2000/svg" xmlns:xlink="http://www.w3.org/1999/xlink" x="0px" y="0px"
	 viewBox="0 0 512 512" style="enable-background:new 0 0 512 512;" xml:space="preserve">
<g>
	<g>
		<g>
			<path d="M241.857,420.143C245.763,424.048,250.882,426,256,426c5.118,0,10.237-1.952,14.143-5.858l40-40
				c7.811-7.81,7.811-20.474,0-28.285c-7.811-7.81-20.475-7.81-28.286,0.001L256,377.716l-25.858-25.858
				c-7.81-7.811-20.474-7.81-28.285,0c-7.811,7.81-7.811,20.474,0,28.285L241.857,420.143z"/>
			<path d="M230.143,310.142L256,284.284l25.857,25.859C285.763,314.048,290.882,316,296,316c5.118,0,10.237-1.952,14.143-5.858
				c7.811-7.81,7.811-20.474,0-28.285l-40-40c-7.81-7.811-20.474-7.811-28.285,0l-40,40c-7.811,7.81-7.81,20.474,0,28.285
				C209.668,317.953,222.332,317.953,230.143,310.142z"/>
			<path d="M376,0H136c-11.046,0-20,8.954-20,20v472c0,11.046,8.954,20,20,20h240c11.046,0,20-8.954,20-20V20
				C396,8.954,387.046,0,376,0z M356,472H156V190h200V472z M356,150H156V40h200V150z"/>
		</g>
	</g>
</g>
<g>
</g>
<g>
</g>
<g>
</g>
<g>
</g>
<g>
</g>
<g>
</g>
<g>
</g>
<g>
</g>
<g>
</g>
<g>
</g>
<g>
</g>
<g>
</g>
<g>
</g>
<g>
</g>
<g>
</g>
</svg>
