<?xml version="1.0" encoding="iso-8859-1"?>
<!-- Generator: Adobe Illustrator 19.0.0, SVG Export Plug-In . SVG Version: 6.00 Build 0)  -->
<svg version="1.1" id="Capa_1" xmlns="http://www.w3.org/2000/svg" xmlns:xlink="http://www.w3.org/1999/xlink" x="0px" y="0px"
	 viewBox="0 0 512 512" style="enable-background:new 0 0 512 512;" xml:space="preserve">
<g>
	<g>
		<g>
			<path d="M492,0H20C8.954,0,0,8.954,0,20v236c0,11.046,8.954,20,20,20h472c11.046,0,20-8.954,20-20V20C512,8.954,503.046,0,492,0z
				 M116,236H40v-30h76V236z M356,236H156v-30h200V236z M472,236h-76v-30h76V236z M472,166H40V40h432V166z"/>
			<path d="M210.285,369.885c0-12.919,4.78-18.461,12.699-27.643c7.214-8.364,6.282-20.993-2.083-28.207
				c-8.363-7.214-20.993-6.282-28.207,2.082c-9.458,10.965-22.41,25.981-22.41,53.768c0,27.787,12.952,42.803,22.409,53.768
				c7.919,9.182,12.699,14.724,12.699,27.644c0,12.918-4.78,18.459-12.698,27.641c-7.214,8.364-6.282,20.993,2.082,28.207
				c8.362,7.213,20.994,6.283,28.208-2.082c9.457-10.964,22.409-25.981,22.409-53.766c0-27.787-12.952-42.804-22.409-53.769
				C215.065,388.347,210.285,382.804,210.285,369.885z"/>
			<path d="M306.607,369.885c0-12.92,4.78-18.461,12.698-27.643c7.214-8.364,6.282-20.993-2.082-28.207
				c-8.363-7.214-20.993-6.282-28.208,2.082c-9.457,10.964-22.409,25.981-22.409,53.768c0,27.787,12.952,42.803,22.409,53.768
				c7.919,9.182,12.699,14.724,12.699,27.644c0,12.917-4.78,18.459-12.698,27.64c-7.214,8.364-6.282,20.993,2.082,28.207
				c8.363,7.214,20.994,6.283,28.208-2.082c9.457-10.964,22.409-25.98,22.409-53.765c0-27.787-12.952-42.804-22.409-53.769
				C311.387,388.347,306.607,382.805,306.607,369.885z"/>
		</g>
	</g>
</g>
<g>
</g>
<g>
</g>
<g>
</g>
<g>
</g>
<g>
</g>
<g>
</g>
<g>
</g>
<g>
</g>
<g>
</g>
<g>
</g>
<g>
</g>
<g>
</g>
<g>
</g>
<g>
</g>
<g>
</g>
</svg>
