<?xml version="1.0" encoding="iso-8859-1"?>
<!-- Generator: Adobe Illustrator 19.0.0, SVG Export Plug-In . SVG Version: 6.00 Build 0)  -->
<svg version="1.1" id="Capa_1" xmlns="http://www.w3.org/2000/svg" xmlns:xlink="http://www.w3.org/1999/xlink" x="0px" y="0px"
	 viewBox="0 0 512 512" style="enable-background:new 0 0 512 512;" xml:space="preserve">
<g>
	<g>
		<path d="M333.214,92.965c-30.731-51.953-61.248-85.158-62.532-86.546C266.896,2.327,261.575,0,256,0s-10.896,2.327-14.682,6.419
			c-1.284,1.388-31.801,34.593-62.532,86.546C150.144,141.386,116,215.916,116,296c0,70.406,52.245,128.83,120,138.565V492
			c0,11.046,8.954,20,20,20s20-8.954,20-20v-57.435C343.755,424.83,396,366.406,396,296C396,215.916,361.856,141.386,333.214,92.965
			z M276,393.989v-32.835l47.882-47.882c7.811-7.811,7.811-20.474,0-28.284c-7.811-7.811-20.474-7.811-28.284,0L256,324.585
			l-39.598-39.598c-7.811-7.811-20.474-7.811-28.284,0c-7.81,7.811-7.811,20.474,0,28.284L236,361.154v32.835
			c-45.589-9.291-80-49.697-80-97.989c0-70.729,30.86-137.947,56.749-181.882c15.963-27.091,32.078-48.947,43.245-63.018
			C286.932,90.138,356,189.254,356,296C356,344.293,321.589,384.698,276,393.989z"/>
	</g>
</g>
<g>
</g>
<g>
</g>
<g>
</g>
<g>
</g>
<g>
</g>
<g>
</g>
<g>
</g>
<g>
</g>
<g>
</g>
<g>
</g>
<g>
</g>
<g>
</g>
<g>
</g>
<g>
</g>
<g>
</g>
</svg>
