<?xml version="1.0" encoding="iso-8859-1"?>
<!-- Generator: Adobe Illustrator 19.0.0, SVG Export Plug-In . SVG Version: 6.00 Build 0)  -->
<svg version="1.1" id="Capa_1" xmlns="http://www.w3.org/2000/svg" xmlns:xlink="http://www.w3.org/1999/xlink" x="0px" y="0px"
	 viewBox="0 0 512 512" style="enable-background:new 0 0 512 512;" xml:space="preserve">
<g>
	<g>
		<g>
			<path d="M314.333,161.378h36.309v36.313c0,11.046,8.953,20,19.998,20s19.998-8.954,19.998-20v-36.313h36.309
				c11.045,0,19.998-8.954,19.998-20s-8.953-20-19.998-20h-36.309V85.065c0-11.046-8.953-20-19.998-20
				c-11.045,0-19.998,8.954-19.998,20v36.312h-36.309c-11.045,0-19.998,8.954-19.998,20
				C294.335,152.423,303.288,161.377,314.333,161.378z"/>
			<path d="M501.667,269.702c-7.234-3.995-16.182-3.128-22.516,2.185c-66.773,56.004-166.276,52.409-228.843-10.165
				c-62.606-62.614-66.127-162.132-10.164-228.869c5.311-6.333,6.179-15.282,2.184-22.518c-3.995-7.237-12.031-11.271-20.218-10.149
				c-55.978,7.66-106.726,32.871-146.756,72.906c-100.465,100.476-100.479,263.113,0,363.603
				C123.909,485.256,188.467,512,257.135,512c130.098,0,237.475-96.331,254.679-222.078
				C512.935,281.733,508.902,273.697,501.667,269.702z M103.635,408.411c-84.835-84.844-84.846-222.179,0-307.035
				c22.292-22.295,48.515-39.144,77.343-49.889c-37.368,78.338-23.084,174.379,41.049,238.519
				c64.13,64.137,160.155,78.429,238.492,41.053C405.624,478.375,215.488,520.277,103.635,408.411z"/>
		</g>
	</g>
</g>
<g>
</g>
<g>
</g>
<g>
</g>
<g>
</g>
<g>
</g>
<g>
</g>
<g>
</g>
<g>
</g>
<g>
</g>
<g>
</g>
<g>
</g>
<g>
</g>
<g>
</g>
<g>
</g>
<g>
</g>
</svg>
