<svg height="512pt" viewBox="0 0 512 512" width="512pt" xmlns="http://www.w3.org/2000/svg"><path d="m512 255.96875s0-.003906 0-.007812c-.023438-141.453126-114.496094-255.960938-256-255.960938-141.453125 0-255.9765625 114.457031-256 255.960938v.007812.007812.023438c0 141.484375 114.496094 256 256 256 141.484375 0 256-114.496094 256-256 0-.007812 0-.015625 0-.023438 0-.003906 0-.003906 0-.007812zm-408.734375-152.703125c18.535156-18.535156 39.851563-33.273437 63-43.855469-14.386719 22.558594-24.953125 48.621094-32.394531 74.773438-11.917969-8.183594-23.066406-17.613282-33.269532-28.191406.882813-.914063 1.761719-1.828126 2.664063-2.726563zm-27.863281 34.136719c14.878906 14.832031 31.371094 27.652344 49.089844 38.277344-4.378907 25.402343-6.671876 52.265624-6.703126 79.769531-24.316406-10.097657-50.210937-16.378907-76.945312-18.5625 3.121094-35.8125 14.984375-69.804688 34.558594-99.484375zm48.230468 250.726562 76.453126 76.585938c-36.289063-9.65625-69.558594-28.71875-96.820313-55.980469-35.792969-35.792969-57.472656-81.9375-62.253906-131.679687 48.53125 4.75 95 25.859374 131.421875 62.339843 27.285156 27.328125 46.335937 60.683594 55.949218 97.054688l-76.441406-76.578125c-7.804687-7.816406-20.464844-7.832032-28.285156-.027344-7.816406 7.804688-7.828125 20.46875-.023438 28.285156zm112.367188-33.015625c-9.992188-15.726562-21.777344-30.472656-35.261719-43.980469-13.058593-13.082031-27.296875-24.5625-42.460937-34.375-.316406-6.929687-.492188-13.875-.492188-20.757812 0-21.25 1.457032-42.003906 4.257813-61.816406 23.457031 9.25 48.34375 15.039062 73.957031 17.027344zm0-184.050781c-23.007812-2.121094-45.292969-7.867188-66.117188-16.921875 9.636719-37.816406 31.148438-91.433594 66.117188-109.058594zm172.734375-67.796875c.902344.898437 1.78125 1.816406 2.664063 2.726563-10.199219 10.582031-21.351563 20.007812-33.269532 28.195312-7.4375-26.148438-18.003906-52.214844-32.394531-74.773438 23.148437 10.578126 44.464844 25.316407 63 43.851563zm-132.734375-58.183594c34.960938 17.621094 56.476562 71.222657 66.117188 109.058594-20.824219 9.054687-43.109376 14.800781-66.117188 16.921875zm0 166.128907c25.613281-1.988282 50.5-7.777344 73.957031-17.027344 2.804688 19.8125 4.257813 40.566406 4.257813 61.816406 0 6.882812-.175782 13.828125-.492188 20.753906-15.164062 9.8125-29.402344 21.296875-42.460937 34.378906-13.484375 13.503907-25.269531 28.25-35.261719 43.980469zm132.734375 197.523437c-27.261719 27.261719-60.53125 46.324219-96.820313 55.980469l76.453126-76.585938c7.804687-7.816406 7.792968-20.480468-.023438-28.285156-7.816406-7.800781-20.480469-7.789062-28.285156.027344l-76.441406 76.578125c9.613281-36.371094 28.667968-69.726563 55.949218-97.054688 35.582032-35.640625 81.667969-57.46875 131.421875-62.339843-4.78125 49.742187-26.460937 95.886718-62.253906 131.679687zm-14.523437-153.285156c-.03125-27.503907-2.324219-54.367188-6.703126-79.769531 17.71875-10.625 34.210938-23.445313 49.089844-38.277344 19.574219 29.679687 31.4375 63.671875 34.558594 99.484375-26.734375 2.183593-52.628906 8.464843-76.945312 18.5625zm0 0"/></svg>