<svg height="512pt" viewBox="-47 0 512 512" width="512pt" xmlns="http://www.w3.org/2000/svg"><path d="m406.511719 248.9375-136.960938-64.453125c-1.902343-4.265625-4.242187-8.292969-6.964843-12.03125l12.632812-150.78125c.980469-11.65625-8.226562-21.671875-19.929688-21.671875h-92.578124c-11.695313 0-20.90625 10.007812-19.929688 21.671875l12.632812 150.78125c-2.722656 3.738281-5.058593 7.765625-6.964843 12.03125l-136.960938 64.453125c-10.585937 4.980469-14.65625 17.964844-8.804687 28.097656l46.3125 80.179688c5.871094 10.171875 19.152344 13.070312 28.726562 6.425781l58.125-40.367187-32.753906 164.828124c-2.457031 12.363282 7.015625 23.898438 19.617188 23.898438h172.578124c12.605469 0 22.074219-11.539062 19.617188-23.898438l-32.753906-164.828124 58.125 40.367187c9.570312 6.644531 22.851562 3.746094 28.726562-6.425781l46.3125-80.179688c5.851563-10.128906 1.789063-23.113281-8.804687-28.097656zm-172.964844-208.9375-8.964844 106.988281c-5-1.207031-10.214843-1.867187-15.582031-1.867187s-10.578125.660156-15.578125 1.867187l-8.964844-106.988281zm-24.546875 145.125c14.496094 0 26.292969 11.792969 26.292969 26.289062 0 14.496094-11.796875 26.292969-26.292969 26.292969s-26.289062-11.796875-26.289062-26.292969c0-14.5 11.792968-26.289062 26.289062-26.289062zm-136.238281 133.261719-24.558594-42.519531 97.210937-45.75c3.015626 10.234374 8.4375 19.441406 15.609376 26.972656zm74.3125 153.613281 36.085937-181.582031 18.839844-13.085938c2.300781.242188 4.636719.375 7 .375 2.367188 0 4.699219-.132812 7-.375l18.839844 13.085938 36.085937 181.582031zm198.167969-153.613281-88.265626-61.296875c7.171876-7.53125 12.59375-16.738282 15.609376-26.96875l97.210937 45.746094zm0 0"/></svg>