<svg height="512pt" viewBox="-39 0 512 512" width="512pt" xmlns="http://www.w3.org/2000/svg"><path d="m427.144531 115.65625c-7.8125 7.8125-20.476562 7.8125-28.285156.003906-48.796875-48.789062-113.558594-75.660156-182.359375-75.660156s-133.5625 26.871094-182.359375 75.660156c-7.808594 7.808594-20.472656 7.808594-28.28125-.003906-7.8125-7.808594-7.8125-20.472656 0-28.28125 56.347656-56.34375 131.15625-87.375 210.640625-87.375s154.292969 31.03125 210.640625 87.375c7.8125 7.808594 7.8125 20.472656.003906 28.28125zm-210.644531-35.65625c-58.144531 0-112.867188 22.699219-154.082031 63.917969-7.8125 7.808593-7.8125 20.472656 0 28.28125 7.808593 7.8125 20.472656 7.8125 28.28125 0 33.664062-33.660157 78.339843-52.199219 125.800781-52.199219s92.136719 18.539062 125.796875 52.199219c7.8125 7.8125 20.472656 7.8125 28.285156 0 7.8125-7.808594 7.8125-20.472657 0-28.28125-41.214843-41.21875-95.9375-63.917969-154.082031-63.917969zm93.4375 143.324219c7.355469-8.238281 6.644531-20.882813-1.59375-28.238281-25.328125-22.625-57.945312-35.085938-91.84375-35.085938s-66.515625 12.460938-91.84375 35.085938c-8.238281 7.355468-8.953125 20-1.59375 28.238281s20 8.949219 28.242188 1.589843c17.984374-16.066406 41.140624-24.914062 65.195312-24.914062s47.210938 8.847656 65.195312 24.914062c8.21875 7.339844 20.863282 6.667969 28.242188-1.589843zm-113.4375 32.675781v128c0 11.046875 8.953125 20 20 20s20-8.953125 20-20v-128c0-11.046875-8.953125-20-20-20s-20 8.953125-20 20zm91.125 21.570312c-9.179688-6.144531-21.601562-3.683593-27.746094 5.496094-6.144531 9.179688-3.683594 21.601563 5.496094 27.746094 24.5 16.398438 39.125 43.757812 39.125 73.1875 0 48.523438-39.476562 88-88 88s-88-39.476562-88-88c0-29.429688 14.625-56.789062 39.125-73.1875 9.179688-6.144531 11.640625-18.566406 5.492188-27.746094-6.140626-9.179687-18.566407-11.636718-27.742188-5.496094-35.613281 23.839844-56.875 63.628907-56.875 106.429688 0 70.578125 57.417969 128 128 128 70.578125 0 128-57.421875 128-128 0-42.800781-21.261719-82.589844-56.875-106.429688zm0 0"/></svg>