<svg height="512pt" viewBox="0 0 512 512" width="512pt" xmlns="http://www.w3.org/2000/svg"><path d="m256 0c-141.484375 0-256 114.496094-256 256 0 140.621094 113.730469 256 256 256 141.453125 0 256-114.472656 256-256 0-141.554688-114.386719-256-256-256zm0 40c58.929688 0 114.453125 23.441406 155.707031 66.308594l-63.332031 109.691406c-5.792969-10.035156-95.660156-165.691406-101.496094-175.796875 3.03125-.125 6.070313-.203125 9.121094-.203125zm69.28125 216-34.640625 60h-69.28125l-34.640625-60 34.640625-60h69.28125zm-121.109375-209.769531 63.375 109.769531c-21.417969 0-177.660156 0-203.109375 0 27.796875-53.089844 78.027344-94.640625 139.734375-109.769531zm-130.542969 325.644531c-21.894531-34.3125-33.628906-74.191406-33.628906-115.875 0-20.59375 2.878906-40.742188 8.414062-60h126.757813c-14.179687 24.558594-89.164063 154.433594-101.542969 175.875zm182.371094 100.125c-57.695312 0-111.9375-22.46875-152.734375-63.265625-1.003906-1.003906-1.988281-2.023437-2.972656-3.042969l63.332031-109.691406c5.792969 10.035156 95.660156 165.691406 101.496094 175.796875-3.03125.125-6.070313.203125-9.121094.203125zm51.828125-6.230469-63.375-109.769531h203.109375c-27.796875 53.089844-78.027344 94.640625-139.734375 109.769531zm29-149.769531c14.179687-24.558594 89.160156-154.433594 101.542969-175.875 21.894531 34.3125 33.628906 74.191406 33.628906 115.875 0 20.59375-2.878906 40.742188-8.414062 60zm0 0"/></svg>