<svg height="512pt" viewBox="0 0 512 512" width="512pt" xmlns="http://www.w3.org/2000/svg"><path d="m256 315.5c11.046875 0 20 8.953125 20 20s-8.953125 20-20 20h-152c-11.046875 0-20-8.953125-20-20s8.953125-20 20-20zm0 78.570312h-152c-11.046875 0-20 8.953126-20 20 0 11.046876 8.953125 20 20 20h152c11.046875 0 20-8.953124 20-20 0-11.046874-8.953125-20-20-20zm256-252.070312v76c0 11.046875-8.953125 20-20 20h-132v254c0 11.046875-8.953125 20-20 20h-320c-11.046875 0-20-8.953125-20-20v-472c0-11.046875 8.953125-20 20-20h320c11.046875 0 20 8.953125 20 20v102h132c11.046875 0 20 8.953125 20 20zm-192 96h-63.554688c-17.550781 23.074219-45.285156 38-76.445312 38-52.933594 0-96-43.066406-96-96s43.066406-96 96-96c31.160156 0 58.894531 14.925781 76.445312 38h63.554688v-82h-280v432h280zm-140-114c-30.878906 0-56 25.121094-56 56s25.121094 56 56 56 56-25.121094 56-56-25.121094-56-56-56zm292 38h-197.699219c1.109375 5.832031 1.699219 11.847656 1.699219 18s-.589844 12.167969-1.699219 18h197.699219zm-33.554688 103.644531c-7.8125 7.808594-7.8125 20.472657 0 28.285157 21.636719 21.636718 33.554688 50.351562 33.554688 80.855468s-11.917969 59.21875-33.554688 80.855469c-7.8125 7.8125-7.8125 20.476563 0 28.285156 7.808594 7.808594 20.472657 7.8125 28.285157 0 29.191406-29.191406 45.269531-67.953125 45.269531-109.140625s-16.078125-79.949218-45.269531-109.144531c-7.8125-7.808594-20.476563-7.808594-28.285157.003906zm-26.203124 42.511719c-7.355469-8.234375-20-8.949219-28.238282-1.59375-8.238281 7.359375-8.953125 20.003906-1.59375 28.242188 9.855469 11.03125 15.28125 25.230468 15.28125 39.980468 0 14.746094-5.425781 28.945313-15.28125 39.980469-7.359375 8.238281-6.644531 20.882813 1.59375 28.238281 8.214844 7.339844 20.863282 6.667969 28.238282-1.59375 16.410156-18.375 25.449218-42.035156 25.449218-66.628906 0-24.589844-9.039062-48.25-25.449218-66.625zm0 0"/></svg>