<svg height="512pt" viewBox="-20 0 512 512" width="512pt" xmlns="http://www.w3.org/2000/svg"><path d="m441.308594 414.734375v-48.734375c0-11.046875-8.953125-20-20-20h-48.019532v-214.574219c0-11.046875-8.953124-20-20-20h-25.789062v-19.925781c0-50.453125-41.046875-91.5-91.5-91.5s-91.5 41.046875-91.5 91.5v19.925781h-25.789062c-11.046876 0-20 8.953125-20 20v214.574219h-48.019532c-11.046875 0-20 8.953125-20 20v48.734375c-18.03125 7.773437-30.691406 25.71875-30.691406 46.574219 0 27.953125 22.738281 50.691406 50.691406 50.691406s50.691406-22.738281 50.691406-50.691406c0-20.855469-12.65625-38.796875-30.691406-46.574219v-28.734375h145.308594v28.734375c-18.035156 7.773437-30.691406 25.71875-30.691406 46.574219 0 27.953125 22.738281 50.691406 50.691406 50.691406s50.691406-22.738281 50.691406-50.691406c0-20.855469-12.660156-38.796875-30.691406-46.574219v-28.734375h145.308594v28.734375c-18.035156 7.773437-30.691406 25.71875-30.691406 46.574219 0 27.953125 22.738281 50.691406 50.691406 50.691406s50.691406-22.738281 50.691406-50.691406c0-20.855469-12.660156-38.800782-30.691406-46.574219zm-390.617188 57.265625c-5.894531 0-10.691406-4.796875-10.691406-10.691406 0-5.894532 4.796875-10.691406 10.691406-10.691406 5.894532 0 10.691406 4.796874 10.691406 10.691406 0 5.894531-4.792968 10.691406-10.691406 10.691406zm133.808594-380.5c0-28.398438 23.101562-51.5 51.5-51.5s51.5 23.101562 51.5 51.5v19.925781h-103zm51.5 380.5c-5.894531 0-10.691406-4.796875-10.691406-10.691406 0-5.894532 4.796875-10.691406 10.691406-10.691406s10.691406 4.796874 10.691406 10.691406c0 5.894531-4.796875 10.691406-10.691406 10.691406zm97.289062-126h-194.578124v-194.574219h194.578124zm88.019532 126c-5.898438 0-10.691406-4.796875-10.691406-10.691406 0-5.894532 4.796874-10.691406 10.691406-10.691406 5.894531 0 10.691406 4.792968 10.691406 10.691406 0 5.894531-4.796875 10.691406-10.691406 10.691406zm-165.308594-255.597656v64.617187c0 11.046875-8.953125 20-20 20s-20-8.953125-20-20v-64.617187c0-11.042969 8.953125-20 20-20s20 8.957031 20 20zm0 0"/></svg>